<svg xmlns="http://www.w3.org/2000/svg" width="1200" height="287" viewBox="0 0 1200 287">
  <defs>
    <style>
      .cls-1 {
        fill: #fff;
        fill-rule: evenodd;
      }
    </style>
  </defs>
  <path id="EchoStudio" class="cls-1" d="M108.922,220.917a4.589,4.589,0,0,0,3.557-1.364,4.911,4.911,0,0,0,1.255-3.463v-8.183a4.377,4.377,0,0,0-4.812-4.827H36.106V155.447h66.539a4.585,4.585,0,0,0,3.557-1.364,4.909,4.909,0,0,0,1.255-3.462v-7.764a5.218,5.218,0,0,0-1.255-3.673,4.6,4.6,0,0,0-3.557-1.364H36.106V91.866h71.142a4.377,4.377,0,0,0,4.812-4.826V79.066a5.216,5.216,0,0,0-1.255-3.672,4.6,4.6,0,0,0-3.557-1.364H20.832a4.593,4.593,0,0,0-3.557,1.364,5.216,5.216,0,0,0-1.256,3.672V216.09a4.911,4.911,0,0,0,1.256,3.463,4.583,4.583,0,0,0,3.557,1.364h88.09Zm90.183-.1a46.232,46.232,0,0,0,12.972-5.876,39.019,39.019,0,0,0,9.1-8.393,34.8,34.8,0,0,0,5.335-9.338,30.72,30.72,0,0,0,1.883-9.023,3.959,3.959,0,0,0-1.255-3.462,5.039,5.039,0,0,0-3.557-1.364H213.542a4.256,4.256,0,0,0-3.139,1.049,11.61,11.61,0,0,0-2.092,3.357q-3.766,10.284-10.253,14.479t-16.111,4.2q-12.555,0-20.4-7.659T153.072,173.7q-0.212-7.131,0-14.689,0.627-17.2,8.474-24.971t20.4-7.764q9.621,0,16.111,4.2t10.253,14.479a9.959,9.959,0,0,0,2.092,3.253,4.555,4.555,0,0,0,3.139.944h10.044a5.28,5.28,0,0,0,3.557-1.259,3.691,3.691,0,0,0,1.255-3.358,30.288,30.288,0,0,0-3.034-11.541,36.525,36.525,0,0,0-8.474-11.331,44.314,44.314,0,0,0-14.333-8.6q-8.685-3.354-20.819-3.357-14.861,0-25.632,5.771a40.058,40.058,0,0,0-16.635,16.577q-5.861,10.81-6.277,25.915-0.211,3.147-.209,8.394t0.209,8.393q0.417,15.108,6.277,25.915a40.02,40.02,0,0,0,16.635,16.578q10.774,5.769,25.632,5.77A62.012,62.012,0,0,0,199.105,220.812Zm68.631,0.1a4.589,4.589,0,0,0,3.557-1.364,4.911,4.911,0,0,0,1.255-3.463V157.965q0-14.685,7.951-22.977t20.924-8.289q13.81,0,20.924,8.289t7.115,22.977V216.09a4.66,4.66,0,0,0,4.812,4.827h10.462a4.587,4.587,0,0,0,3.557-1.364,4.912,4.912,0,0,0,1.256-3.463V156.916q0-14.057-4.917-24.656a37.993,37.993,0,0,0-14.438-16.578q-9.523-5.981-23.121-5.98-12.555,0-20.715,4.407a44.215,44.215,0,0,0-13.81,11.541V76.757a4.921,4.921,0,0,0-1.255-3.462,4.6,4.6,0,0,0-3.557-1.364H257.274a4.66,4.66,0,0,0-4.813,4.826V216.09a4.66,4.66,0,0,0,4.813,4.827h10.462Zm182.039-3.987A40.878,40.878,0,0,0,466.1,200.038a58.254,58.254,0,0,0,6.277-24.656q0.205-3.566.209-9.128t-0.209-8.918a57,57,0,0,0-6.382-24.761,41.768,41.768,0,0,0-16.425-16.788Q438.9,109.7,423.2,109.7t-26.364,6.085a41.749,41.749,0,0,0-16.425,16.788,56.946,56.946,0,0,0-6.382,24.761q-0.211,3.358-.209,8.918t0.209,9.128a58.254,58.254,0,0,0,6.277,24.656,40.871,40.871,0,0,0,16.321,16.892q10.671,6.084,26.573,6.085T449.775,216.93Zm-47.393-18.361q-7.846-8.287-8.265-24.237-0.212-3.147-.209-7.973t0.209-7.974q0.417-15.945,8.265-24.237T423.2,125.86q12.972,0,20.715,8.288t8.37,24.237q0.205,3.147.209,7.974t-0.209,7.973q-0.628,15.95-8.37,24.237T423.2,206.858Q410.226,206.858,402.382,198.569Zm184.969,18.676q14.957-5.769,23.539-16.473t8.579-25.6q0-13.219-5.649-22.033T595.93,138.87q-12.241-5.454-32.119-8.394-10.466-2.1-16.321-3.882t-8.16-4.092a7.459,7.459,0,0,1-2.3-5.456,7.841,7.841,0,0,1,3.767-7.029q3.767-2.41,10.88-2.413a21.957,21.957,0,0,1,10.671,2.308q4.183,2.311,5.232,5.246a11.422,11.422,0,0,0,3.347,2.728,9.286,9.286,0,0,0,4.185.839h34.943a4.191,4.191,0,0,0,3.034-1.364,4.447,4.447,0,0,0,1.361-3.252,30.466,30.466,0,0,0-4.395-14.06,49.161,49.161,0,0,0-12.136-13.744,64.149,64.149,0,0,0-19.563-10.387,82.089,82.089,0,0,0-26.679-3.987q-18.2,0-31.909,5.876T498.423,94.174a39.937,39.937,0,0,0-7.637,24.131q0,13.433,6.173,22.558t17.89,14.479a112.1,112.1,0,0,0,27.829,8.079q11.5,2.1,18.2,3.987t9.52,4.2a7.265,7.265,0,0,1,2.825,5.875q0,4.619-5.231,7.24t-14.856,2.622a33.055,33.055,0,0,1-9.207-1.154,18.646,18.646,0,0,1-6.486-3.147,28.379,28.379,0,0,1-4.394-4.3,21.025,21.025,0,0,0-3.557-2.623,9.431,9.431,0,0,0-4.6-.944H491.623a4.3,4.3,0,0,0-4.394,4.406,37.865,37.865,0,0,0,7.637,21.089q7.219,9.969,21.761,16.158t36.513,6.19Q572.388,223.015,587.351,217.245Zm130.043,3.672a5.368,5.368,0,0,0,5.44-5.456V192.588a5.366,5.366,0,0,0-5.44-5.455H699.818q-5.444,0-7.952-3.463t-2.51-9.547V143.906H715.72a5.368,5.368,0,0,0,5.44-5.456V117.256a5.368,5.368,0,0,0-5.44-5.456H689.356V77.387a5.369,5.369,0,0,0-5.441-5.456H653.576a5.369,5.369,0,0,0-5.441,5.456V111.8h-16.53a5.368,5.368,0,0,0-5.44,5.456V138.45a5.368,5.368,0,0,0,5.44,5.456h16.53V177.69q0,15.738,5.964,25.286a33.5,33.5,0,0,0,16.739,13.744q10.774,4.2,25,4.2h21.552Zm80.767-1.574a30.712,30.712,0,0,0,14.228-11.436v7.554a5.368,5.368,0,0,0,5.44,5.456h30.55a5.371,5.371,0,0,0,3.766-1.574,5.117,5.117,0,0,0,1.674-3.882V117.256a5.123,5.123,0,0,0-1.674-3.882,5.371,5.371,0,0,0-3.766-1.574h-33.06a5.369,5.369,0,0,0-5.441,5.456v56.867q0,7.766-3.871,11.96t-10.776,4.2q-14.437,0-14.437-16.157V117.256a5.368,5.368,0,0,0-5.44-5.456h-33.06a5.369,5.369,0,0,0-5.441,5.456v58.336q0,15.948,5.545,26.439a37.663,37.663,0,0,0,14.856,15.738,40.868,40.868,0,0,0,20.4,5.246A53.943,53.943,0,0,0,798.161,219.343Zm136.32,0a36.781,36.781,0,0,0,12.659-9.758v5.876a5.106,5.106,0,0,0,1.674,3.882,5.6,5.6,0,0,0,3.976,1.574h29.5a5.368,5.368,0,0,0,5.44-5.456V77.387a5.367,5.367,0,0,0-5.44-5.456H950.07A5.36,5.36,0,0,0,946.3,73.5a5.112,5.112,0,0,0-1.674,3.882v43.437a37.506,37.506,0,0,0-12.345-8.079,43.344,43.344,0,0,0-16.739-3.043,46.8,46.8,0,0,0-17.681,3.253,39.716,39.716,0,0,0-13.914,9.337,42.843,42.843,0,0,0-9.207,15.214,67.417,67.417,0,0,0-3.766,20.879q-0.212,4.406-.21,7.764t0.21,7.974a74.5,74.5,0,0,0,3.975,21.613,42.646,42.646,0,0,0,9.207,15.318,36.392,36.392,0,0,0,13.81,9.023,50.374,50.374,0,0,0,17.576,2.938Q926.844,223.015,934.481,219.343ZM921.4,188.077a12.077,12.077,0,0,1-4.5-6.085,35.872,35.872,0,0,1-1.779-8.919,72.062,72.062,0,0,1,0-13.429,35.891,35.891,0,0,1,1.779-8.918,12.092,12.092,0,0,1,4.5-6.086,14.294,14.294,0,0,1,8.369-2.2,14.873,14.873,0,0,1,8.37,2.1,13.188,13.188,0,0,1,4.708,5.456,20.509,20.509,0,0,1,1.778,7.764q0.417,4.2.419,7.659t-0.419,8.079a28.519,28.519,0,0,1-1.569,8.394,12.5,12.5,0,0,1-4.6,6.085q-3.247,2.311-8.684,2.308A14.294,14.294,0,0,1,921.4,188.077Zm123.456,32.84a5.609,5.609,0,0,0,3.97-1.574,5.1,5.1,0,0,0,1.68-3.882V117.256a5.111,5.111,0,0,0-1.68-3.882,5.609,5.609,0,0,0-3.97-1.574h-30.97a5.369,5.369,0,0,0-5.44,5.456v98.205a5.369,5.369,0,0,0,5.44,5.456h30.97Zm-0.42-122.756a5.608,5.608,0,0,0,3.97-1.574,5.105,5.105,0,0,0,1.68-3.882V70.672a5.735,5.735,0,0,0-5.65-5.666h-30.13a5.073,5.073,0,0,0-3.87,1.679,5.63,5.63,0,0,0-1.57,3.987V92.705a5.369,5.369,0,0,0,5.44,5.456h30.13Zm112.25,119.4a41.694,41.694,0,0,0,19.36-16.052q6.69-10.595,7.53-25.5,0.42-4.407.42-9.652t-0.42-9.653q-0.84-15.108-7.95-25.6a44.488,44.488,0,0,0-19.77-15.948q-12.66-5.454-30.24-5.456-17.565,0-30.23,5.456a44.517,44.517,0,0,0-19.78,15.948q-7.11,10.494-7.95,25.6-0.21,4.407-.21,9.653t0.21,9.652q0.84,14.9,7.54,25.5a41.618,41.618,0,0,0,19.35,16.052q12.66,5.454,31.07,5.456T1156.69,217.559Zm-41.53-28.748q-2.925-4.613-3.56-13.849-0.21-3.147-.21-8.6t0.21-8.6q0.63-9.019,3.56-13.744t10.46-4.722q7.74,0,10.67,4.722t3.35,13.744q0.21,3.149.21,8.6t-0.21,8.6q-0.42,9.236-3.35,13.849t-10.67,4.617Q1118.09,193.428,1115.16,188.811Z"/>
</svg>
