<svg version="1.1" xmlns="http://www.w3.org/2000/svg" width="512px" height="512px" transform="rotate(0) scale(1, 1)">
<path d="M0 0 C10.88395746 8.72366607 21.16620235 18.43977459 28.9921875 30.03515625 C30.58714146 32.23194447 30.58714146 32.23194447 32.4296875 33.78515625 C36.01345305 33.99249353 36.01345305 33.99249353 38.53515625 33.3359375 C58.75273802 29.48886729 80.24289519 35.5820133 97.22265625 46.484375 C116.3356377 60.19636778 128.79323248 79.44027564 132.7421875 102.72265625 C132.98427026 104.40835182 133.21884495 106.09526897 133.4296875 107.78515625 C134.44546875 107.94371094 135.46125 108.10226563 136.5078125 108.265625 C158.86621708 111.96474611 177.76972567 122.76639409 191.5546875 140.9453125 C204.68500784 160.83227685 209.0948896 183.91636038 204.39770508 207.41918945 C201.03909371 221.25835022 194.01533456 233.37437107 184.4296875 243.78515625 C183.89085937 244.41550781 183.35203125 245.04585938 182.796875 245.6953125 C169.95613785 259.85883916 149.56136172 267.64765671 130.88495064 269.05162621 C127.30309167 269.14923707 123.73365517 269.15722549 120.15063477 269.12573242 C118.7986859 269.12488303 117.44673567 269.12536736 116.0947876 269.12705994 C112.47789652 269.12790916 108.86131325 269.11046082 105.24449277 269.08933806 C101.44490766 269.07038903 97.64531294 269.06880665 93.84568787 269.06526184 C86.6743871 269.05599426 79.50322604 269.03145335 72.33198637 269.00121337 C64.15769052 268.96750316 55.98338746 268.95114188 47.80903924 268.93612707 C31.01584064 268.90489805 14.22278199 268.85224229 -2.5703125 268.78515625 C-2.56662533 269.40138351 -2.56293816 270.01761078 -2.55913925 270.6525116 C-2.47068174 285.66829718 -2.4045513 300.68400245 -2.36306381 315.69998169 C-2.34246586 322.96170426 -2.31439861 330.22325258 -2.26855469 337.48486328 C-2.22860168 343.81639699 -2.20285957 350.14780445 -2.19395852 356.47946072 C-2.18875784 359.83007964 -2.17447481 363.18005243 -2.14739227 366.53060913 C-2.1183161 370.27713345 -2.11435846 374.02291208 -2.11621094 377.76953125 C-2.10182983 378.8722084 -2.08744873 379.97488556 -2.07263184 381.11097717 C-2.11072347 388.24007771 -2.97702415 394.19034943 -8.19067001 399.4061985 C-14.45566893 404.59768307 -23.15016917 403.50692635 -30.8203125 403.44921875 C-32.40397513 403.45259262 -33.98763523 403.45744999 -35.57128906 403.4637146 C-38.87980969 403.47105916 -42.18765236 403.46045967 -45.49609375 403.43701172 C-49.71956352 403.40852426 -53.94144437 403.42494142 -58.16485596 403.45487404 C-61.43192336 403.47301328 -64.69861914 403.46715898 -67.96569824 403.45423508 C-69.52209668 403.45091929 -71.07852977 403.45492332 -72.6348877 403.46663284 C-87.94138556 403.55654413 -87.94138556 403.55654413 -92.94995499 399.4061985 C-98.16360085 394.19034943 -99.02990153 388.24007771 -99.06799316 381.11097717 C-99.04642151 379.45696144 -99.04642151 379.45696144 -99.02441406 377.76953125 C-99.02499817 376.588181 -99.02558228 375.40683075 -99.02618408 374.18968201 C-99.02340861 370.30453596 -98.99234003 366.42016745 -98.9609375 362.53515625 C-98.95124324 359.8337446 -98.94758429 357.13233373 -98.94378662 354.4309082 C-98.93138857 348.05970933 -98.89861048 341.68878728 -98.85838866 335.31770992 C-98.81357164 328.06014427 -98.79165906 320.80256491 -98.77160692 313.54489517 C-98.72987458 298.62482836 -98.65958493 283.70502008 -98.5703125 268.78515625 C-99.26254693 268.78792163 -99.95478136 268.79068701 -100.66799259 268.79353619 C-117.57226735 268.86001436 -134.47650027 268.90954246 -151.38087559 268.94059277 C-159.555967 268.95601056 -167.73097075 268.97700179 -175.90600586 269.01147461 C-183.03782796 269.04153383 -190.16958652 269.06076814 -197.30147022 269.06742173 C-201.07190034 269.07130625 -204.84214878 269.0803269 -208.61252022 269.10234642 C-212.17397979 269.12297391 -215.73518588 269.12893816 -219.29669952 269.12447929 C-221.20110337 269.12567578 -223.10548074 269.14167857 -225.0098114 269.15841675 C-247.65520387 269.07882522 -268.04192459 261.03183997 -284.4453125 245.34765625 C-300.61565359 228.23306167 -307.26142325 208.17845163 -307.03881836 185.00683594 C-306.47675329 165.66475345 -299.69687249 148.13098169 -286.5703125 133.78515625 C-285.97992188 133.10324219 -285.38953125 132.42132813 -284.78125 131.71875 C-272.04179561 117.86798151 -254.56413496 111.352038 -236.5703125 107.78515625 C-235.9103125 107.78515625 -235.2503125 107.78515625 -234.5703125 107.78515625 C-234.44076172 106.07585937 -234.44076172 106.07585937 -234.30859375 104.33203125 C-231.90262546 75.939785 -222.79513755 47.42921264 -203.5703125 25.78515625 C-201.5703125 24.78515625 -201.5703125 24.78515625 -197.85546875 25.0703125 C-194.45676797 25.10796485 -192.74676404 24.58353202 -190.12890625 22.40625 C-189.06760509 21.36599074 -188.02725868 20.30396516 -187.0078125 19.22265625 C-186.46318359 18.70896484 -185.91855469 18.19527344 -185.35742188 17.66601562 C-183.55596633 15.92133833 -183.55596633 15.92133833 -181.5703125 12.78515625 C-181.86080784 9.20974316 -181.86080784 9.20974316 -182.5703125 5.78515625 C-180.72567695 1.0257149 -177.10614524 -1.30113809 -172.9453125 -3.96484375 C-171.9560376 -4.60728027 -171.9560376 -4.60728027 -170.94677734 -5.26269531 C-118.71839715 -38.59369728 -49.7548471 -38.67333246 0 0 Z " fill="#e8e8f3" transform="translate(306.5703125,29.21484375)"/>
<path d="M0 0 C9.57212038 8.03364233 18.55776215 16.87142053 25.5625 27.25 C27.15745396 29.44678822 27.15745396 29.44678822 29 31 C32.58376555 31.20733728 32.58376555 31.20733728 35.10546875 30.55078125 C55.32305052 26.70371104 76.81320769 32.79685705 93.79296875 43.69921875 C112.9059502 57.41121153 125.36354498 76.65511939 129.3125 99.9375 C129.55458276 101.62319557 129.78915745 103.31011272 130 105 C131.01578125 105.15855469 132.0315625 105.31710938 133.078125 105.48046875 C155.43652958 109.17958986 174.34003817 119.98123784 188.125 138.16015625 C201.25532034 158.0471206 205.6652021 181.13120413 200.96801758 204.6340332 C197.60940621 218.47319397 190.58564706 230.58921482 181 241 C180.46117187 241.63035156 179.92234375 242.26070313 179.3671875 242.91015625 C166.52645035 257.07368291 146.13167422 264.86250046 127.45526314 266.26646996 C123.87340417 266.36408082 120.30396767 266.37206924 116.72094727 266.34057617 C115.3689984 266.33972678 114.01704817 266.34021111 112.6651001 266.34190369 C109.04820902 266.34275291 105.43162575 266.32530457 101.81480527 266.30418181 C98.01522016 266.28523278 94.21562544 266.2836504 90.41600037 266.28010559 C83.2446996 266.27083801 76.07353854 266.2462971 68.90229887 266.21605712 C60.72800302 266.18234691 52.55369996 266.16598563 44.37935174 266.15097082 C27.58615314 266.1197418 10.79309449 266.06708604 -6 266 C-5.99631283 266.61622726 -5.99262566 267.23245453 -5.98882675 267.86735535 C-5.90036924 282.88314093 -5.8342388 297.8988462 -5.79275131 312.91482544 C-5.77215336 320.17654801 -5.74408611 327.43809633 -5.69824219 334.69970703 C-5.65828918 341.03124074 -5.63254707 347.3626482 -5.62364602 353.69430447 C-5.61844534 357.04492339 -5.60416231 360.39489618 -5.57707977 363.74545288 C-5.5480036 367.4919772 -5.54404596 371.23775583 -5.54589844 374.984375 C-5.53151733 376.08705215 -5.51713623 377.18972931 -5.50231934 378.32582092 C-5.54041097 385.45492146 -6.40671165 391.40519318 -11.62035751 396.62104225 C-17.88535643 401.81252682 -26.57985667 400.7217701 -34.25 400.6640625 C-35.83366263 400.66743637 -37.41732273 400.67229374 -39.00097656 400.67855835 C-42.30949719 400.68590291 -45.61733986 400.67530342 -48.92578125 400.65185547 C-53.14925102 400.62336801 -57.37113187 400.63978517 -61.59454346 400.66971779 C-64.86161086 400.68785703 -68.12830664 400.68200273 -71.39538574 400.66907883 C-72.95178418 400.66576304 -74.50821727 400.66976707 -76.0645752 400.68147659 C-91.37107306 400.77138788 -91.37107306 400.77138788 -96.37964249 396.62104225 C-101.59328835 391.40519318 -102.45958903 385.45492146 -102.49768066 378.32582092 C-102.47610901 376.67180519 -102.47610901 376.67180519 -102.45410156 374.984375 C-102.45468567 373.80302475 -102.45526978 372.6216745 -102.45587158 371.40452576 C-102.45309611 367.51937971 -102.42202753 363.6350112 -102.390625 359.75 C-102.38093074 357.04858835 -102.37727179 354.34717748 -102.37347412 351.64575195 C-102.36107607 345.27455308 -102.32829798 338.90363103 -102.28807616 332.53255367 C-102.24325914 325.27498802 -102.22134656 318.01740866 -102.20129442 310.75973892 C-102.15956208 295.83967211 -102.08927243 280.91986383 -102 266 C-102.69223443 266.00276538 -103.38446886 266.00553076 -104.09768009 266.00837994 C-121.00195485 266.07485811 -137.90618777 266.12438621 -154.81056309 266.15543652 C-162.9856545 266.17085431 -171.16065825 266.19184554 -179.33569336 266.22631836 C-186.46751546 266.25637758 -193.59927402 266.27561189 -200.73115772 266.28226548 C-204.50158784 266.28615 -208.27183628 266.29517065 -212.04220772 266.31719017 C-215.60366729 266.33781766 -219.16487338 266.34378191 -222.72638702 266.33932304 C-224.63079087 266.34051953 -226.53516824 266.35652232 -228.4394989 266.3732605 C-251.08489137 266.29366897 -271.47161209 258.24668372 -287.875 242.5625 C-304.04534109 225.44790542 -310.69111075 205.39329538 -310.46850586 182.22167969 C-309.90644079 162.8795972 -303.12655999 145.34582544 -290 131 C-289.40960938 130.31808594 -288.81921875 129.63617188 -288.2109375 128.93359375 C-275.47148311 115.08282526 -257.99382246 108.56688175 -240 105 C-239.34 105 -238.68 105 -238 105 C-237.87044922 103.29070312 -237.87044922 103.29070312 -237.73828125 101.546875 C-235.33231296 73.15462875 -226.22482505 44.64405639 -207 23 C-204.15916359 21.57958179 -202.14522722 21.68547728 -199 22 C-196.625 23.5625 -196.625 23.5625 -195 26 C-194.01733406 32.8441821 -196.77127394 36.44908889 -200.5 41.8125 C-212.95593724 60.68457588 -219.51701906 80.50678993 -221.8371582 102.97192383 C-222.54366511 109.06561977 -224.10419839 113.04418178 -228.5078125 117.5390625 C-233.27976422 120.74341656 -238.01430578 121.73854348 -243.5625 122.8125 C-259.72321059 126.01968991 -273.34271944 134.42298885 -282.75805664 148.18603516 C-292.44533645 163.08491509 -296.57093535 179.51697515 -293.3125 197.1640625 C-289.60103616 214.41314197 -280.89026747 229.18461893 -266 239 C-263.43867744 240.52567246 -260.83400332 241.94045026 -258.1875 243.3125 C-257.57261719 243.63814941 -256.95773437 243.96379883 -256.32421875 244.29931641 C-242.95233803 250.88592671 -228.82507318 250.46911471 -214.29296875 250.51171875 C-212.11435451 250.52859182 -209.93574984 250.54674554 -207.75715637 250.56611633 C-202.06422927 250.61333706 -196.37134103 250.64332637 -190.67828369 250.66955566 C-184.85250174 250.69950303 -179.02685331 250.74598421 -173.20117188 250.79101562 C-161.8008515 250.87673054 -150.40050341 250.94421634 -139 251 C-139.01757355 249.7267688 -139.03514709 248.4535376 -139.05325317 247.14172363 C-139.16788849 238.83621449 -132.59408658 233.13988051 -127.125 227.5 C-125.87022553 226.1818155 -124.61630792 224.86281477 -123.36328125 223.54296875 C-122.77369629 222.92470215 -122.18411133 222.30643555 -121.57666016 221.66943359 C-119.22994802 219.18463681 -116.99834178 216.60946551 -114.76953125 214.01953125 C-112.3911558 211.30513807 -109.94491095 208.65427613 -107.5 206 C-104.46105508 202.69977216 -101.43843789 199.39050526 -98.5 196 C-95.0932265 192.0691075 -91.56997215 188.24803427 -88.046875 184.421875 C-85.49444857 181.64505943 -82.97016712 178.85019283 -80.5 176 C-77.50262228 172.56204387 -74.48599493 169.14267984 -71.4375 165.75 C-70.99019531 165.24210938 -70.54289063 164.73421875 -70.08203125 164.2109375 C-66.30521682 160.03656366 -62.6760803 156.47388922 -57 155.46875 C-48.1881484 155.56054012 -44.33872246 157.6770076 -38.0625 163.75 C-34.9150334 166.98060722 -31.9211887 170.31587217 -28.98046875 173.734375 C-26.53394232 176.53316263 -24.01923279 179.26689817 -21.5 182 C-17.89964986 185.90960866 -14.35581927 189.85867007 -10.875 193.875 C-8.45449925 196.61823418 -5.97799358 199.30884568 -3.5 202 C0.10012756 205.90981595 3.64417605 209.85866468 7.125 213.875 C9.54551102 216.61824582 12.02254162 219.30834252 14.5 222 C16.33416614 223.99923798 18.16703235 225.99966269 20 228 C20.69996094 228.75925781 21.39992188 229.51851563 22.12109375 230.30078125 C28.22550685 237.06158285 31.23946917 241.72775377 31 251 C43.46694291 250.98504301 55.9334874 250.94308387 68.40022087 250.86790943 C74.1908561 250.83381343 79.98123235 250.80855669 85.77197266 250.80444336 C91.37436112 250.80012288 96.97616711 250.77135298 102.57837296 250.72656822 C104.70143346 250.71371201 106.8245641 250.70924267 108.94765854 250.71384621 C131.35566889 250.75107057 151.7008608 246.97464433 168.4296875 230.85546875 C177.89897259 220.33563987 185.59456575 206.41825569 186 192 C186.061875 190.92621094 186.12375 189.85242188 186.1875 188.74609375 C186.85957758 168.60476871 179.77147916 152.94330061 166.2734375 138.1015625 C156.71028723 128.79118272 143.7529894 124.3258775 130.91503906 121.89794922 C123.83690181 120.43631531 119.30657264 117.34055348 115.1875 111.375 C114.10397887 108.2955189 113.59369034 105.65077343 113.125 102.4375 C110.7166885 86.61704721 102.13176493 70.762563 89.43994141 60.77197266 C77.6712125 52.16817523 65.01911725 46.63062275 50.2578125 47.078125 C48.76434465 47.10538463 47.27085342 47.1313872 45.77734375 47.15625 C43.45100849 47.19939384 41.12591682 47.2499715 38.80029297 47.32226562 C22.94870805 47.79253939 22.94870805 47.79253939 17.44726562 43.44873047 C15.25124244 41.25048459 13.43370536 39.00956602 11.6875 36.4375 C-8.19242857 8.76816159 -37.22351061 -8.05828319 -70.42578125 -14.68359375 C-95.73052488 -18.76500401 -122.80832837 -16.28933795 -146 -5 C-146.69029297 -4.66452148 -147.38058594 -4.32904297 -148.09179688 -3.98339844 C-155.53329288 -0.32197149 -162.55757143 3.47949022 -169.125 8.5625 C-172.35067318 11.0061918 -173.83208155 11.96479129 -177.875 12.8125 C-181.95308698 11.75219738 -183.59706105 10.45422474 -186 7 C-186.16392788 3.06573097 -185.47739488 1.52928563 -182.84375 -1.390625 C-168.73616017 -14.33550138 -149.35678228 -23.11555392 -131 -28 C-129.94063232 -28.29197266 -129.94063232 -28.29197266 -128.85986328 -28.58984375 C-84.58446058 -40.28703626 -35.15027353 -28.9263805 0 0 Z " fill="#020101" transform="translate(310,32)"/>
<path d="M0 0 C7.82951607 4.70296435 11.9189309 11.23039517 14.375 19.9375 C14.87979396 24.4312308 14.84365394 28.86554596 14.765625 33.3828125 C14.75996521 34.63383759 14.75430542 35.88486267 14.74847412 37.17379761 C14.73000183 40.46528708 14.69420329 43.75596053 14.6496582 47.04718018 C14.60839813 50.41937384 14.59039825 53.79168801 14.5703125 57.1640625 C14.52640629 63.75552175 14.4596151 70.34644429 14.375 76.9375 C38.08758011 76.96082631 61.80015851 76.97847785 85.51274776 76.98931217 C96.5220929 76.9944757 107.53143092 77.00151948 118.54077148 77.01293945 C128.13281892 77.02288456 137.72486121 77.02935301 147.31691366 77.03158849 C152.39915292 77.0328959 157.48137744 77.03598361 162.56361198 77.04323006 C167.34135671 77.04998754 172.11908055 77.05211752 176.89682961 77.05060768 C178.65571074 77.05088413 180.41459253 77.05289086 182.17346954 77.05670547 C184.5641131 77.06163848 186.95467646 77.06049976 189.34532166 77.05775452 C190.0505614 77.06066736 190.75580115 77.0635802 191.4824118 77.06658131 C194.70773342 77.32990202 194.70773342 77.32990202 197.375 75.9375 C197.47720424 74.24143229 197.51070298 72.54117422 197.5168457 70.84204102 C197.52388016 69.75323135 197.53091461 68.66442169 197.53816223 67.5426178 C197.54440865 65.76001808 197.54440865 65.76001808 197.55078125 63.94140625 C197.5739967 61.43814279 197.59811471 58.93488757 197.62304688 56.43164062 C197.65805019 52.47528723 197.68743441 48.51923293 197.70092773 44.56274414 C197.71648159 40.75109147 197.7567625 36.94032306 197.80078125 33.12890625 C197.79887283 31.95872452 197.79696442 30.78854279 197.79499817 29.582901 C197.93471132 20.11802838 199.84679697 11.50780118 206.578125 4.4765625 C213.76191236 -1.67650754 221.2789484 -3.04362042 230.5234375 -2.54296875 C237.59780643 -1.66046634 242.82733912 0.98301265 247.75 6.125 C254.21318277 14.96402604 255.01841542 23.88608067 254.89648438 34.51635742 C254.87486597 36.76393408 254.89646036 39.00837429 254.921875 41.25585938 C254.91923435 42.69792365 254.91411482 44.139986 254.90625 45.58203125 C254.90173828 46.87471924 254.89722656 48.16740723 254.89257812 49.49926758 C254.29052049 53.49869102 253.3373321 55.21104522 250.375 57.9375 C249.055 57.9375 247.735 57.9375 246.375 57.9375 C246.375 64.5375 246.375 71.1375 246.375 77.9375 C248.025 78.2675 249.675 78.5975 251.375 78.9375 C253.16040039 80.10717773 253.16040039 80.10717773 254.375 81.9375 C255.03647663 86.59341615 254.83786675 91.30253932 254.8125 96 C254.83248047 97.28583984 254.85246094 98.57167969 254.87304688 99.89648438 C254.86796792 109.84616565 253.41709963 118.8882213 246.25891685 126.29230559 C239.4972499 132.19716103 232.24221757 133.6737303 223.52099609 133.57241821 C222.4741181 133.58021817 221.4272401 133.58801812 220.34863853 133.59605443 C216.86487283 133.61588815 213.38220997 133.60024278 209.8984375 133.58447266 C207.39104579 133.59125255 204.88365907 133.60015777 202.37628174 133.61102295 C196.28744331 133.63141812 190.19900863 133.62848488 184.11016512 133.61395974 C179.15909074 133.60264053 174.20810266 133.60114815 169.25701904 133.60657883 C168.55076869 133.60734499 167.84451834 133.60811116 167.11686647 133.60890054 C165.6818671 133.61049926 164.24686775 133.61212033 162.81186843 133.6137635 C149.37451764 133.62800106 135.93733777 133.61165968 122.50001502 133.58476166 C110.98495051 133.56242463 99.47013808 133.56630532 87.95507812 133.58935547 C74.56388262 133.61614882 61.17283669 133.62662795 47.78161812 133.61129415 C46.35207242 133.6097015 44.9225267 133.60812965 43.49298096 133.60657883 C42.43809811 133.60542176 42.43809811 133.60542176 41.3619045 133.60424132 C36.4201677 133.59993489 31.47852623 133.60718795 26.5368042 133.61897659 C19.87831721 133.63451237 13.22037796 133.62335834 6.56191254 133.59450531 C4.1214756 133.58790646 1.68099855 133.58977149 -0.7594223 133.60081863 C-4.0971492 133.61453212 -7.43336485 133.59728584 -10.77099609 133.57241821 C-11.73112925 133.58357182 -12.6912624 133.59472543 -13.68049049 133.60621703 C-21.26008304 133.4970739 -27.72507742 131.34045419 -33.50889397 126.29367125 C-43.18804104 116.27331003 -42.21785979 103.34963682 -42.15625 90.40625 C-42.15894901 88.40425427 -42.16283482 86.40225983 -42.16784668 84.40026855 C-42.17372248 80.21772704 -42.16524079 76.03552875 -42.14648438 71.85302734 C-42.12369616 66.51356429 -42.13682955 61.17490571 -42.16077423 55.83547211 C-42.17528417 51.70540393 -42.17060245 47.57552393 -42.16026306 43.44544983 C-42.15761012 41.47762454 -42.16081463 39.50978171 -42.17018127 37.54197693 C-42.25875808 13.7071681 -42.25875808 13.7071681 -33.421875 4.4765625 C-24.24605319 -3.38272836 -11.05341233 -5.02579624 0 0 Z " fill="#020101" transform="translate(149.625,379.0625)"/>
<path d="M0 0 C3.73673945 0.15974908 5.56403598 1.28394029 8.0859375 3.87890625 C9.19383889 5.09636196 10.28971055 6.32484467 11.375 7.5625 C11.9529834 8.20364746 12.5309668 8.84479492 13.12646484 9.50537109 C14.76316212 11.32653693 16.38457132 13.15996911 18 15 C18.66515625 15.75410156 19.3303125 16.50820312 20.015625 17.28515625 C21.07967733 18.501585 22.1396556 19.72159081 23.1953125 20.9453125 C25.58781774 23.66924703 28.04405942 26.33343269 30.5 29 C34.1001789 32.90976768 37.64417723 36.85866603 41.125 40.875 C43.54550075 43.61823418 46.02200642 46.30884568 48.5 49 C52.09286792 52.90193182 55.64168984 56.83197148 59.09375 60.859375 C60.6631805 62.62176826 62.264699 64.32159475 63.90625 66.015625 C64.41607422 66.54929687 64.92589844 67.08296875 65.45117188 67.6328125 C66.46827126 68.69480278 67.49540095 69.74729421 68.53320312 70.7890625 C69.9375 72.265625 69.9375 72.265625 72 75 C71.8724431 77.34385795 71.65055372 78.34944628 70 80 C67.67113025 80.10998808 65.33919369 80.15594639 63.0078125 80.17578125 C61.56639166 80.19898059 60.12498537 80.22309798 58.68359375 80.24804688 C56.40338443 80.28317615 54.12370877 80.3125076 51.84326172 80.32592773 C49.64744899 80.3413912 47.45321021 80.381588 45.2578125 80.42578125 C43.9392627 80.44036377 42.62071289 80.45494629 41.26220703 80.4699707 C37.99404903 80.67202892 37.99404903 80.67202892 36.32061195 82.69977283 C34.73316636 85.46476786 34.6192017 87.15676346 34.60800171 90.33366394 C34.59136223 91.95526176 34.59136223 91.95526176 34.5743866 93.60961914 C34.5788958 95.38103271 34.5788958 95.38103271 34.58349609 97.18823242 C34.57491074 98.43566727 34.56632538 99.68310211 34.55747986 100.96833801 C34.53668753 104.38554764 34.52900825 107.80232696 34.52682066 111.21956801 C34.52116009 114.79327598 34.49788859 118.36686552 34.47622681 121.94050598 C34.43770815 128.70715684 34.41348487 135.47377381 34.39510214 142.24050647 C34.36168091 154.37120334 34.30406359 166.50179899 34.24111044 178.63237458 C34.21957226 182.89215243 34.20432955 187.15189493 34.19427085 191.41171491 C34.18563342 194.67447382 34.17106002 197.93720862 34.15771484 201.19995117 C34.15667252 202.38696625 34.15563019 203.57398132 34.15455627 204.79696655 C34.14910294 205.8695723 34.1436496 206.94217804 34.13803101 208.04728699 C34.13547491 208.98508594 34.13291882 209.92288488 34.13028526 210.88910198 C34 213 34 213 33 214 C31.07238183 214.09920863 29.14110646 214.12799365 27.2109375 214.12939453 C25.9729541 214.13254669 24.7349707 214.13569885 23.45947266 214.13894653 C22.09798141 214.13715675 20.73649049 214.1351058 19.375 214.1328125 C17.98876936 214.13348559 16.60253883 214.13445566 15.21630859 214.13571167 C12.30760578 214.1371884 9.39893363 214.1350349 6.49023438 214.13037109 C2.75403402 214.12467381 -0.98209452 214.12795294 -4.71829224 214.13394356 C-7.58179266 214.13754985 -10.44527593 214.13641027 -13.30877686 214.13381577 C-14.68674732 214.13314668 -16.06471932 214.13397426 -17.44268799 214.13629532 C-19.36543754 214.13882292 -21.28819252 214.13429024 -23.2109375 214.12939453 C-24.85521729 214.12820114 -24.85521729 214.12820114 -26.53271484 214.12698364 C-29 214 -29 214 -30 213 C-30.10174028 211.35159137 -30.13352952 209.69882621 -30.13803101 208.04728699 C-30.14348434 206.97468124 -30.14893768 205.9020755 -30.15455627 204.79696655 C-30.1555986 203.60995148 -30.15664093 202.4229364 -30.15771484 201.19995117 C-30.16279556 199.95777328 -30.16787628 198.7155954 -30.17311096 197.43577576 C-30.18384291 194.72765353 -30.19283549 192.01958325 -30.19923019 189.31145287 C-30.20989011 185.02980295 -30.23012993 180.74823262 -30.25234985 176.46662903 C-30.31434037 164.28923185 -30.36828536 152.11183867 -30.40136719 139.93432617 C-30.41970584 133.21344141 -30.44863355 126.49268923 -30.4893719 119.77190191 C-30.51045762 116.21371182 -30.52590131 112.65568895 -30.52817917 109.09743309 C-30.53072337 105.12756048 -30.55617442 101.15801579 -30.58349609 97.18823242 C-30.58048996 96.00729004 -30.57748383 94.82634766 -30.5743866 93.60961914 C-30.58547958 92.52855392 -30.59657257 91.44748871 -30.60800171 90.33366394 C-30.61131186 89.39473392 -30.614622 88.45580389 -30.61803246 87.48842144 C-31.07555738 84.50776288 -31.8857499 83.13261682 -34 81 C-36.63454348 80.57322037 -38.87230436 80.39521604 -41.51171875 80.390625 C-42.23994339 80.37408875 -42.96816803 80.35755249 -43.71846008 80.34051514 C-46.04155865 80.29197803 -48.3640025 80.27065331 -50.6875 80.25 C-52.26370492 80.22184482 -53.83987926 80.19191801 -55.41601562 80.16015625 C-59.27728983 80.08621856 -63.13819939 80.03667968 -67 80 C-67.58789062 77.62231445 -67.58789062 77.62231445 -68 75 C-66.59375 73.04296875 -66.59375 73.04296875 -64.5 71.1875 C-61.74542471 68.63273846 -59.1287322 66.10701384 -56.6875 63.25 C-53.69320621 59.76921912 -50.61158612 56.37574271 -47.5 53 C-44.46093308 49.69988699 -41.43843486 46.39050176 -38.5 43 C-35.5615599 39.6094922 -32.53885858 36.3003097 -29.5 33 C-25.87909866 29.06715159 -22.31041075 25.09785988 -18.80859375 21.05859375 C-16.5698875 18.5104335 -14.28589788 16.00589407 -12 13.5 C-7.94092236 9.04991029 -3.94126319 4.55463859 0 0 Z " fill="#2b44dd" transform="translate(254,203)"/>
<path d="M0 0 C3.933053 1.60645827 6.60558942 3.40838413 9 7 C9.2515564 9.50210571 9.2515564 9.50210571 9.25537109 12.52197266 C9.26233002 13.65390045 9.26928894 14.78582825 9.27645874 15.95205688 C9.27546173 17.17701874 9.27446472 18.40198059 9.2734375 19.6640625 C9.29373581 22.25651466 9.31458676 24.84896254 9.3359375 27.44140625 C9.36061767 31.52945711 9.3758329 35.61744537 9.38085938 39.70556641 C9.38687809 43.65029498 9.42423762 47.59449893 9.4609375 51.5390625 C9.45589203 52.75187897 9.45084656 53.96469543 9.44564819 55.21426392 C9.53338043 62.82671764 9.96202971 69.64596746 15.35343742 75.45937443 C22.52396999 80.83183402 31.61373803 79.69114064 40.13085938 79.63110352 C41.9811115 79.63624592 43.83135873 79.64352962 45.68159485 79.65278625 C50.69201436 79.67126747 55.70190028 79.65838231 60.71229744 79.63869596 C65.96294881 79.6222811 71.21356715 79.6311263 76.4642334 79.63621521 C85.28076679 79.64073299 94.0970878 79.62488583 102.91357422 79.59692383 C113.09747206 79.56487344 123.28098691 79.56488876 133.46491194 79.5821386 C143.27335364 79.59801849 153.08165534 79.59126068 162.89009094 79.57420158 C167.05898276 79.56734034 171.22776203 79.56835404 175.39665222 79.57574654 C180.30847517 79.58342418 185.21986381 79.57123487 190.13161278 79.54389763 C191.93108519 79.53702824 193.73059828 79.53690028 195.53006935 79.54411316 C197.99273482 79.55284475 200.45407122 79.53679065 202.91662598 79.5146637 C203.62325552 79.52290446 204.32988505 79.53114523 205.05792761 79.53963572 C210.35644516 79.45218402 214.694634 78.04435001 219 75 C222.77304367 70.23611446 224.12323243 65.38917627 224.12597656 59.41455078 C224.13168671 57.69729294 224.13168671 57.69729294 224.13751221 55.94534302 C224.13905304 54.08907791 224.13905304 54.08907791 224.140625 52.1953125 C224.1589488 49.58462666 224.1785187 46.97394933 224.19921875 44.36328125 C224.22958453 40.2396851 224.25231888 36.11639435 224.25048828 31.99267578 C224.24954932 28.01821618 224.28832669 24.04457915 224.328125 20.0703125 C224.3210553 18.83685089 224.3139856 17.60338928 224.30670166 16.33255005 C224.4287412 7.77443359 224.4287412 7.77443359 227.35449219 3.80810547 C232.07159367 0.58414334 234.18692981 -0.58130702 240 0 C243.933053 1.60645827 246.60558942 3.40838413 249 7 C249.30297852 10.21459961 249.30297852 10.21459961 249.37890625 14.15234375 C249.39590073 14.84888565 249.4128952 15.54542755 249.43040466 16.26307678 C249.48348196 18.48779245 249.52378538 20.71249172 249.5625 22.9375 C249.60653697 25.15884027 249.65336427 27.38004177 249.70530701 29.60121155 C249.75171046 31.61934661 249.7892827 33.63767895 249.82641602 35.65600586 C249.86271923 39.48270448 249.86271923 39.48270448 251 43 C252.98 43.66 254.96 44.32 257 45 C257 51.6 257 58.2 257 65 C255.02 65.66 253.04 66.32 251 67 C249.51279415 70.03044523 249.84562458 73.56440293 249.7890625 76.90234375 C249.76070313 78.03994141 249.73234375 79.17753906 249.703125 80.34960938 C249.65113011 82.73747452 249.60683257 85.12551993 249.5703125 87.51367188 C249.539375 88.65255859 249.5084375 89.79144531 249.4765625 90.96484375 C249.45674316 92.0024585 249.43692383 93.04007324 249.41650391 94.10913086 C248.92468837 97.52272276 248.15313379 99.3041671 246 102 C240.69408989 105.4569872 236.05552538 105.42679038 229.94177246 105.38768005 C228.42747658 105.39575836 228.42747658 105.39575836 226.88258886 105.40399987 C223.50167984 105.41830113 220.12116114 105.41117022 216.74023438 105.40405273 C214.31561467 105.4097551 211.89099766 105.41671884 209.46638489 105.42485046 C203.5656043 105.44094523 197.66492205 105.44287982 191.76413119 105.43763756 C186.96788047 105.43359395 182.1716612 105.43504167 177.37541199 105.44038582 C176.69244304 105.44113424 176.00947409 105.44188266 175.30580911 105.44265376 C173.91831369 105.44418526 172.53081829 105.4457236 171.14332289 105.44726873 C158.13679116 105.46099132 145.1303196 105.45555752 132.12378925 105.44408352 C120.22652234 105.43414866 108.32941088 105.44709653 96.43216795 105.47101771 C84.21197873 105.49540291 71.99186194 105.50501819 59.77164888 105.49836498 C52.91251383 105.49487181 46.05349837 105.49711136 39.19438171 105.51461601 C32.74619212 105.53086811 26.29822657 105.52616541 19.85004234 105.50731087 C17.48209885 105.50361618 15.11413347 105.5067589 12.7462101 105.51719666 C9.51653697 105.53034734 6.28785752 105.51891076 3.05822754 105.50120544 C1.64898585 105.51561295 1.64898585 105.51561295 0.21127462 105.53031152 C-5.4980921 105.46580486 -8.60413931 104.71478459 -13 101 C-15.87628807 97.37195445 -15.30280555 92.79001019 -15.30639648 88.36352539 C-15.31472 87.4931514 -15.32304352 86.6227774 -15.33161926 85.72602844 C-15.35570816 82.84985885 -15.36448931 79.973916 -15.37109375 77.09765625 C-15.38005975 75.0975284 -15.38918159 73.09740124 -15.39845276 71.09727478 C-15.41494146 66.90508392 -15.42264287 62.71297293 -15.42553711 58.52075195 C-15.43092585 53.14919279 -15.46862688 47.77838388 -15.51428127 42.40703678 C-15.54402103 38.27633419 -15.55125997 34.1458131 -15.55226326 30.01501274 C-15.5564704 28.03464757 -15.56892445 26.0542821 -15.58978081 24.07402229 C-15.61663595 21.30407565 -15.61188793 18.53587947 -15.59936523 15.76586914 C-15.61419952 14.94856323 -15.62903381 14.13125732 -15.64431763 13.28918457 C-15.58992928 9.06470493 -15.38956211 7.48453506 -12.65003967 4.07713318 C-8.06726271 0.48509712 -5.8723096 -0.58723096 0 0 Z " fill="#2b44dd" transform="translate(139,392)"/>
<path d="M0 0 C1 2 1 2 0.35083008 3.96435547 C-0.18441284 5.15375732 -0.18441284 5.15375732 -0.73046875 6.3671875 C-1.31405151 7.68638184 -1.31405151 7.68638184 -1.90942383 9.03222656 C-2.54207153 10.43939941 -2.54207153 10.43939941 -3.1875 11.875 C-13.97234842 36.50361183 -18.44203041 60.81859181 -18.375 87.625 C-18.37445618 88.45216522 -18.37391235 89.27933044 -18.37335205 90.13156128 C-18.33233317 103.76705688 -17.32534995 116.72896869 -14 130 C-13.78569336 130.88880859 -13.57138672 131.77761719 -13.35058594 132.69335938 C-6.83773862 159.18083451 5.47951568 184.1211103 24.3125 204.00390625 C26 206 26 206 26 208 C26.598125 208.2475 27.19625 208.495 27.8125 208.75 C30.29482087 210.16846907 31.36328035 211.69264738 33 214 C24.93347826 214.02312737 16.86697028 214.04091709 8.80042362 214.05181217 C5.05516963 214.05704014 1.30993824 214.06413622 -2.43530273 214.07543945 C-6.04681687 214.08627141 -9.65830921 214.09227749 -13.26983833 214.09487724 C-14.65060329 214.09673094 -16.031367 214.10035049 -17.41212273 214.10573006 C-19.33975952 214.11294447 -21.26741807 214.11340809 -23.19506836 214.11352539 C-24.84387245 214.11685631 -24.84387245 214.11685631 -26.52598572 214.12025452 C-29 214 -29 214 -30 213 C-30.10174028 211.35159137 -30.13352952 209.69882621 -30.13803101 208.04728699 C-30.14348434 206.97468124 -30.14893768 205.9020755 -30.15455627 204.79696655 C-30.1555986 203.60995148 -30.15664093 202.4229364 -30.15771484 201.19995117 C-30.16279556 199.95777328 -30.16787628 198.7155954 -30.17311096 197.43577576 C-30.18384291 194.72765353 -30.19283549 192.01958325 -30.19923019 189.31145287 C-30.20989011 185.02980295 -30.23012993 180.74823262 -30.25234985 176.46662903 C-30.31434037 164.28923185 -30.36828536 152.11183867 -30.40136719 139.93432617 C-30.41970584 133.21344141 -30.44863355 126.49268923 -30.4893719 119.77190191 C-30.51045762 116.21371182 -30.52590131 112.65568895 -30.52817917 109.09743309 C-30.53072337 105.12756048 -30.55617442 101.15801579 -30.58349609 97.18823242 C-30.58048996 96.00729004 -30.57748383 94.82634766 -30.5743866 93.60961914 C-30.58547958 92.52855392 -30.59657257 91.44748871 -30.60800171 90.33366394 C-30.61131186 89.39473392 -30.614622 88.45580389 -30.61803246 87.48842144 C-31.07555738 84.50776288 -31.8857499 83.13261682 -34 81 C-36.63454348 80.57322037 -38.87230436 80.39521604 -41.51171875 80.390625 C-42.23994339 80.37408875 -42.96816803 80.35755249 -43.71846008 80.34051514 C-46.04155865 80.29197803 -48.3640025 80.27065331 -50.6875 80.25 C-52.26370492 80.22184482 -53.83987926 80.19191801 -55.41601562 80.16015625 C-59.27728983 80.08621856 -63.13819939 80.03667968 -67 80 C-67.58789062 77.62231445 -67.58789062 77.62231445 -68 75 C-66.59375 73.04296875 -66.59375 73.04296875 -64.5 71.1875 C-61.74542471 68.63273846 -59.1287322 66.10701384 -56.6875 63.25 C-53.69320621 59.76921912 -50.61158612 56.37574271 -47.5 53 C-44.46093308 49.69988699 -41.43843486 46.39050176 -38.5 43 C-35.5615599 39.6094922 -32.53885858 36.3003097 -29.5 33 C-25.87909866 29.06715159 -22.31041075 25.09785988 -18.80859375 21.05859375 C-16.5698875 18.5104335 -14.28589788 16.00589407 -12 13.5 C-7.94092236 9.04991029 -3.94126319 4.55463859 0 0 Z " fill="#4b5ff0" transform="translate(254,203)"/>
<path d="M0 0 C3.933053 1.60645827 6.60558942 3.40838413 9 7 C9.2515564 9.50210571 9.2515564 9.50210571 9.25537109 12.52197266 C9.26233002 13.65390045 9.26928894 14.78582825 9.27645874 15.95205688 C9.27546173 17.17701874 9.27446472 18.40198059 9.2734375 19.6640625 C9.29373581 22.25651466 9.31458676 24.84896254 9.3359375 27.44140625 C9.36061767 31.52945711 9.3758329 35.61744537 9.38085938 39.70556641 C9.38687809 43.65029498 9.42423762 47.59449893 9.4609375 51.5390625 C9.45589203 52.75187897 9.45084656 53.96469543 9.44564819 55.21426392 C9.53582737 63.03903681 10.09549933 69.59594868 15.44821167 75.63349915 C21.98356352 80.83107225 31.06579857 79.72930135 38.96875 79.70703125 C40.61643287 79.72016102 42.26409969 79.73546916 43.91174316 79.75285339 C48.22555092 79.79256725 52.53893631 79.80288498 56.85290527 79.80688477 C61.26404523 79.81624204 65.67493967 79.85367169 70.0859375 79.88867188 C78.72396305 79.95310892 87.36174536 79.98646267 96 80 C96.04898438 80.88300781 96.09796875 81.76601563 96.1484375 82.67578125 C96.26058594 84.47595703 96.26058594 84.47595703 96.375 86.3125 C96.44460937 87.48425781 96.51421875 88.65601563 96.5859375 89.86328125 C96.99963175 94.96941308 98.02284975 99.97703433 99 105 C85.28299883 105.09267889 71.56607214 105.16375462 57.84882164 105.20724869 C51.47934281 105.22812364 45.1100782 105.2564403 38.74072266 105.30175781 C32.59397908 105.34521779 26.44744155 105.3691378 20.30055618 105.37950897 C17.95538718 105.38689998 15.61022945 105.4013328 13.26514816 105.42292023 C9.98039119 105.45195529 6.69648574 105.45595583 3.41162109 105.45410156 C2.44201447 105.46848267 1.47240784 105.48286377 0.47341919 105.49768066 C-5.16051898 105.46326512 -8.62709559 104.92637487 -13 101 C-15.87628807 97.37195445 -15.30280555 92.79001019 -15.30639648 88.36352539 C-15.31472 87.4931514 -15.32304352 86.6227774 -15.33161926 85.72602844 C-15.35570816 82.84985885 -15.36448931 79.973916 -15.37109375 77.09765625 C-15.38005975 75.0975284 -15.38918159 73.09740124 -15.39845276 71.09727478 C-15.41494146 66.90508392 -15.42264287 62.71297293 -15.42553711 58.52075195 C-15.43092585 53.14919279 -15.46862688 47.77838388 -15.51428127 42.40703678 C-15.54402103 38.27633419 -15.55125997 34.1458131 -15.55226326 30.01501274 C-15.5564704 28.03464757 -15.56892445 26.0542821 -15.58978081 24.07402229 C-15.61663595 21.30407565 -15.61188793 18.53587947 -15.59936523 15.76586914 C-15.61419952 14.94856323 -15.62903381 14.13125732 -15.64431763 13.28918457 C-15.58992928 9.06470493 -15.38956211 7.48453506 -12.65003967 4.07713318 C-8.06726271 0.48509712 -5.8723096 -0.58723096 0 0 Z " fill="#5e6cf2" transform="translate(139,392)"/>
<path d="M0 0 C4.95514487 3.6464784 8.401868 9.37949463 9.47265625 15.39453125 C9.77644471 22.2035829 8.02062709 27.33958624 3.62109375 32.5234375 C-2.91911973 38.80779911 -11.55042549 42.12364075 -20.5390625 42.43359375 C-30.92708018 41.96141113 -38.88882113 38.493759 -45.9765625 30.87109375 C-50.27438078 25.60018454 -50.44542729 20.8200731 -50.37890625 14.16796875 C-49.55329149 7.40273715 -45.21858142 3.71160529 -40.1640625 -0.44140625 C-27.38501941 -9.30701838 -13.08533584 -7.47364043 0 0 Z " fill="#fea2ac" transform="translate(195.9765625,142.12890625)"/>
<path d="M0 0 C4.96979401 3.60140898 9.30880477 7.40297433 12 13 C12.8416014 19.59254428 13.06859984 26.48770344 9 32 C3.4713925 38.94147387 -3.38087088 42.2201416 -12 44 C-22.48954987 45.10582604 -31.61373385 42.71412505 -40 36.1875 C-44.75918544 31.61449297 -47.17334637 26.66787077 -47.5625 20.0625 C-47.25696721 13.64631133 -44.75293876 8.79653733 -40.2734375 4.24609375 C-28.66891504 -5.28107592 -13.27288128 -7.12251776 0 0 Z " fill="#fea1ac" transform="translate(354,140)"/>
<path d="M0 0 C1.93359375 0.41015625 1.93359375 0.41015625 4.30859375 2.47265625 C6.15433965 5.80919691 7.06243509 8.70773193 7.93359375 12.41015625 C12.45471194 13.56278985 12.45471194 13.56278985 16.74609375 12.41015625 C18.13682622 10.26124982 18.13682622 10.26124982 18.93359375 6.91015625 C20.37677557 1.85901989 20.37677557 1.85901989 22.93359375 0.41015625 C26.02441363 0.01767119 27.98070651 -0.21621377 30.93359375 0.41015625 C34.82123086 3.78626216 35.79368355 7.56553791 36.93359375 12.41015625 C41.45471194 13.56278985 41.45471194 13.56278985 45.74609375 12.41015625 C47.13682622 10.26124982 47.13682622 10.26124982 47.93359375 6.91015625 C49.37677557 1.85901989 49.37677557 1.85901989 51.93359375 0.41015625 C55.47217504 -0.11544892 58.62587543 -0.50733177 61.6484375 1.61328125 C64.34061036 5.37741352 63.6414572 10.03427308 62.93359375 14.41015625 C60.11701159 21.13693855 55.43138394 25.30673407 48.93359375 28.41015625 C44.04979027 30.03809074 38.52356693 30.53445041 33.7109375 28.4453125 C33.04191406 28.06246094 32.37289062 27.67960937 31.68359375 27.28515625 C28.50652434 25.45742917 28.50652434 25.45742917 24.74609375 26.03515625 C23.05529221 26.86177034 21.36694771 27.69347927 19.68359375 28.53515625 C14.01512511 30.33875991 8.14907203 30.29191045 2.68359375 27.84765625 C-2.60096999 24.84165947 -6.79595421 20.06036794 -9.06640625 14.41015625 C-9.3671875 11.71875 -9.3671875 11.71875 -9.37890625 8.84765625 C-9.39566406 7.89761719 -9.41242188 6.94757813 -9.4296875 5.96875 C-9.06640625 3.41015625 -9.06640625 3.41015625 -7.79296875 1.6015625 C-5.32398652 -0.10214696 -2.93652073 -0.12392656 0 0 Z " fill="#050505" transform="translate(229.06640625,131.58984375)"/>
<path d="M0 0 C5.66344818 3.28920099 9.26495612 8.28857104 11.625 14.375 C12.13368528 18.5171516 12.06189156 20.60203801 10 24.25 C7.06439696 26.87659219 5.56796851 27.53593749 1.625 27.375 C-3.01397168 24.00120241 -4.21706877 20.74359026 -5.375 15.375 C-9.89611819 14.2223664 -9.89611819 14.2223664 -14.1875 15.375 C-15.86826633 18.20576434 -16.51226344 21.21163263 -17.375 24.375 C-19.375 26.375 -19.375 26.375 -23.25 26.8125 C-26.54906522 26.71652719 -27.20423613 26.51588019 -29.875 24.3125 C-31.81089424 20.52137377 -32.00920934 18.60306228 -31.375 14.375 C-28.77421853 7.5074987 -24.67844896 3.06739688 -18.375 -0.625 C-12.44146813 -2.60284396 -5.73646881 -2.63331235 0 0 Z " fill="#050505" transform="translate(327.375,107.625)"/>
<path d="M0 0 C5.70792691 3.33837852 9.11741616 8.15680259 11.1796875 14.35546875 C11.91782028 17.70296566 11.62672222 20.1194028 10.625 23.375 C8.4375 25.875 8.4375 25.875 5.625 27.375 C2.17840324 27.375 0.42104648 27.11418602 -2.125 24.75 C-3.71650495 21.72614059 -4.54835662 18.68157352 -5.375 15.375 C-9.89611819 14.2223664 -9.89611819 14.2223664 -14.1875 15.375 C-15.86826633 18.20576434 -16.51226344 21.21163263 -17.375 24.375 C-19.375 26.375 -19.375 26.375 -23.25 26.8125 C-26.54906522 26.71652719 -27.20423613 26.51588019 -29.875 24.3125 C-31.81089424 20.52137377 -32.00920934 18.60306228 -31.375 14.375 C-28.77421853 7.5074987 -24.67844896 3.06739688 -18.375 -0.625 C-12.44146813 -2.60284396 -5.73646881 -2.63331235 0 0 Z " fill="#050505" transform="translate(204.375,107.625)"/>
</svg>